<svg width="512" height="512" xmlns="http://www.w3.org/2000/svg">

 <g>
  <title>background</title>
  <rect fill="none" id="canvas_background" height="402" width="582" y="-1" x="-1"/>
 </g>
 <g>
  <title>Layer 1</title>
  <g id="svg_1">
   <g id="svg_2">
    <path id="svg_3" fill="#ffffff" d="m213.333,0c-70.592,0 -128,57.408 -128,128l0,42.667c0,26.411 8.043,50.965 21.803,71.381c-63.915,36.864 -107.136,105.685 -107.136,184.619l0,21.333c0,35.285 28.715,64 64,64l192,0c11.797,0 21.333,-9.557 21.333,-21.333s-9.536,-21.333 -21.333,-21.333l-192,0c-11.776,0 -21.333,-9.579 -21.333,-21.333l0,-21.333c0,-66.965 38.784,-125.013 95.061,-152.939c21.227,15.595 47.317,24.939 75.605,24.939c70.592,0 128,-57.408 128,-128l0,-42.668c0,-70.592 -57.408,-128 -128,-128zm85.334,170.667c0,47.061 -38.272,85.333 -85.333,85.333s-85.334,-38.272 -85.334,-85.333l0,-42.667c0,-47.061 38.272,-85.333 85.333,-85.333c47.061,0 85.333,38.272 85.333,85.333l0,42.667l0.001,0z"/>
   </g>
  </g>
  <g id="svg_4">
   <g id="svg_5">
    <path id="svg_6" fill="#ffffff" d="m490.667,362.667l-85.333,0l0,-85.333c0,-11.776 -9.536,-21.333 -21.333,-21.333c-11.797,0 -21.333,9.557 -21.333,21.333l0,85.333l-85.333,0c-11.799,0 -21.335,9.557 -21.335,21.333s9.536,21.333 21.333,21.333l85.333,0l0,85.333c0,11.776 9.536,21.333 21.333,21.333c11.797,0 21.333,-9.557 21.333,-21.333l0,-85.333l85.333,0c11.797,0 21.333,-9.557 21.333,-21.333s-9.534,-21.333 -21.331,-21.333z"/>
   </g>
  </g>
  <g id="svg_7"/>
  <g id="svg_8"/>
  <g id="svg_9"/>
  <g id="svg_10"/>
  <g id="svg_11"/>
  <g id="svg_12"/>
  <g id="svg_13"/>
  <g id="svg_14"/>
  <g id="svg_15"/>
  <g id="svg_16"/>
  <g id="svg_17"/>
  <g id="svg_18"/>
  <g id="svg_19"/>
  <g id="svg_20"/>
  <g id="svg_21"/>
 </g>
</svg>