<svg width="512" height="512" xmlns="http://www.w3.org/2000/svg">

 <g>
  <title>background</title>
  <rect fill="none" id="canvas_background" height="402" width="582" y="-1" x="-1"/>
 </g>
 <g>
  <title>Layer 1</title>
  <g id="svg_1">
   <g id="svg_2">
    <path id="svg_3" fill="#ffffff" d="m334.974,0c-95.419,0 -173.049,77.63 -173.049,173.049c0,21.213 3.769,41.827 11.211,61.403l-165.464,165.476c-2.365,2.366 -3.694,5.573 -3.694,8.917l0,90.544c0,6.965 5.646,12.611 12.611,12.611l74.616,0c3.341,0 6.545,-1.325 8.91,-3.686l25.145,-25.107c2.37,-2.366 3.701,-5.577 3.701,-8.925l0,-30.876l30.837,0c6.965,0 12.611,-5.646 12.611,-12.611l0,-12.36l12.361,0c6.964,0 12.611,-5.646 12.611,-12.611l0,-27.136l27.136,0c3.344,0 6.551,-1.329 8.917,-3.694l40.121,-40.121c19.579,7.449 40.196,11.223 61.417,11.223c95.419,0 173.049,-77.63 173.049,-173.049c0.001,-95.417 -77.628,-173.047 -173.047,-173.047zm0,320.874c-20.642,0 -40.606,-4.169 -59.339,-12.393c-4.844,-2.126 -10.299,-0.956 -13.871,2.525c-0.039,0.037 -0.077,0.067 -0.115,0.106l-42.354,42.354l-34.523,0c-6.965,0 -12.611,5.646 -12.611,12.611l0,27.136l-12.361,0c-6.964,0 -12.611,5.646 -12.611,12.611l0,12.36l-30.838,0c-6.964,0 -12.611,5.646 -12.611,12.611l0,38.257l-17.753,17.725l-56.785,0l0,-17.821l154.141,-154.14c4.433,-4.433 4.433,-11.619 0,-16.051s-11.617,-4.434 -16.053,0l-138.088,138.089l0,-22.784l167.696,-167.708c0.038,-0.038 0.067,-0.073 0.102,-0.11c3.482,-3.569 4.656,-9.024 2.53,-13.872c-8.216,-18.732 -12.38,-38.695 -12.38,-59.33c0,-81.512 66.315,-147.827 147.827,-147.827s147.825,66.314 147.825,147.827c-0.002,81.51 -66.318,147.824 -147.828,147.824z"/>
   </g>
  </g>
  <g id="svg_4">
   <g id="svg_5">
    <path id="svg_6" fill="#ffffff" d="m387.638,73.144c-26.047,0 -47.237,21.19 -47.237,47.237s21.19,47.237 47.237,47.237s47.237,-21.19 47.237,-47.237s-21.189,-47.237 -47.237,-47.237zm0,69.252c-12.139,0 -22.015,-9.876 -22.015,-22.015s9.876,-22.015 22.015,-22.015s22.015,9.876 22.015,22.015s-9.876,22.015 -22.015,22.015z"/>
   </g>
  </g>
  <g id="svg_7"/>
  <g id="svg_8"/>
  <g id="svg_9"/>
  <g id="svg_10"/>
  <g id="svg_11"/>
  <g id="svg_12"/>
  <g id="svg_13"/>
  <g id="svg_14"/>
  <g id="svg_15"/>
  <g id="svg_16"/>
  <g id="svg_17"/>
  <g id="svg_18"/>
  <g id="svg_19"/>
  <g id="svg_20"/>
  <g id="svg_21"/>
 </g>
</svg>