<svg width="480.036" height="480.036" xmlns="http://www.w3.org/2000/svg">

 <g>
  <title>background</title>
  <rect fill="none" id="canvas_background" height="402" width="582" y="-1" x="-1"/>
 </g>
 <g>
  <title>Layer 1</title>
  <g id="svg_1">
   <g id="svg_2">
    <g id="svg_3">
     <path id="svg_4" fill="#ffffff" d="m272.015,448c97.202,0 176,-78.798 176,-176s-78.798,-176 -176,-176s-176,78.798 -176,176c0.11,97.156 78.843,175.89 176,176zm-136,-184l-23.592,0c4.17,-81.933 69.659,-147.422 151.592,-151.592l0,23.592c0,4.418 3.582,8 8,8s8,-3.582 8,-8l0,-23.592c81.933,4.17 147.422,69.659 151.592,151.592l-31.592,0c-4.418,0 -8,3.582 -8,8s3.582,8 8,8l31.592,0c-4.17,81.932 -69.659,147.422 -151.592,151.592l0,-23.592c0,-4.418 -3.582,-8 -8,-8s-8,3.582 -8,8l0,23.592c-81.932,-4.17 -147.422,-69.659 -151.592,-151.592l23.592,0c4.418,0 8,-3.582 8,-8s-3.582,-8 -8,-8z"/>
     <path id="svg_5" fill="#ffffff" d="m452.135,168.138c-2.385,-4.132 -4.912,-8.18 -7.576,-12.138l19.752,-19.752c3.123,-3.124 3.123,-8.188 0,-11.312l-45.2,-45.2c-3.124,-3.123 -8.188,-3.123 -11.312,0l-19.784,19.72c-32.002,-21.606 -69.414,-33.819 -108,-35.256l0,-48.2l56,0c4.418,0 8,-3.582 8,-8s-3.582,-8 -8,-8l-128,0c-4.418,0 -8,3.582 -8,8s3.582,8 8,8l56,0l0,48.272c-71.348,2.724 -136.3,41.894 -172,103.728l-44,0c-4.418,0 -8,3.582 -8,8s3.582,8 8,8l48,0c0.208,0 0.384,-0.104 0.592,-0.12c2.883,0.037 5.557,-1.495 6.984,-4c50.899,-93.024 167.571,-127.174 260.596,-76.276s127.173,167.572 76.275,260.596c-50.899,93.024 -167.571,127.174 -260.596,76.276c-32.192,-17.614 -58.662,-44.084 -76.276,-76.276c-1.413,-2.515 -4.083,-4.063 -6.968,-4.04c-0.208,0 -0.392,-0.12 -0.608,-0.12l-48,0c-4.418,0 -8,3.582 -8,8s3.582,8 8,8l44,0c57.411,99.444 184.567,133.52 284.011,76.109c99.445,-57.411 133.52,-184.567 76.11,-284.011zm-51.047,-59.068l12.366,-12.366l33.888,33.888l-12.384,12.384c-9.96,-12.556 -21.324,-23.932 -33.87,-33.906z"/>
     <path id="svg_6" fill="#ffffff" d="m80.015,272c0,-4.418 -3.582,-8 -8,-8l-64,0c-4.418,0 -8,3.582 -8,8s3.582,8 8,8l64,0c4.418,0 8,-3.582 8,-8z"/>
     <path id="svg_7" fill="#ffffff" d="m24.015,232l56,0c4.418,0 8,-3.582 8,-8s-3.582,-8 -8,-8l-56,0c-4.418,0 -8,3.582 -8,8s3.581,8 8,8z"/>
     <path id="svg_8" fill="#ffffff" d="m88.015,320c0,-4.418 -3.582,-8 -8,-8l-56,0c-4.418,0 -8,3.582 -8,8s3.582,8 8,8l56,0c4.418,0 8,-3.582 8,-8z"/>
     <path id="svg_9" fill="#ffffff" d="m250.359,325.656c3.124,3.123 8.188,3.123 11.312,0l111.2,-111.2c3.07,-3.178 2.982,-8.242 -0.196,-11.312c-3.1,-2.994 -8.015,-2.994 -11.116,0l-105.544,105.544l-47.6,-47.6c-3.178,-3.069 -8.243,-2.982 -11.312,0.196c-2.994,3.1 -2.994,8.015 0,11.116l53.256,53.256z"/>
    </g>
   </g>
  </g>
  <g id="svg_10"/>
  <g id="svg_11"/>
  <g id="svg_12"/>
  <g id="svg_13"/>
  <g id="svg_14"/>
  <g id="svg_15"/>
  <g id="svg_16"/>
  <g id="svg_17"/>
  <g id="svg_18"/>
  <g id="svg_19"/>
  <g id="svg_20"/>
  <g id="svg_21"/>
  <g id="svg_22"/>
  <g id="svg_23"/>
  <g id="svg_24"/>
 </g>
</svg>